<svg xmlns="http://www.w3.org/2000/svg" xmlns:xlink="http://www.w3.org/1999/xlink" preserveAspectRatio="xMidYMid" width="247" height="153" viewBox="0 0 494 306">
  <defs>
    <style>
      .cls-1 {
        fill: #914F1E;
        fill-rule: evenodd;
      }
    </style>
  </defs>
  <path d="M476.000,211.000 L470.000,211.000 C460.059,211.000 452.000,202.941 452.000,193.000 L452.000,107.000 C452.000,97.059 460.059,89.000 470.000,89.000 L476.000,89.000 C485.941,89.000 494.000,97.059 494.000,107.000 L494.000,193.000 C494.000,202.941 485.941,211.000 476.000,211.000 ZM247.000,241.000 C139.305,241.000 52.000,200.258 52.000,150.000 C52.000,99.742 139.305,59.000 247.000,59.000 C354.695,59.000 442.000,99.742 442.000,150.000 C442.000,200.258 354.695,241.000 247.000,241.000 ZM364.000,46.000 L278.000,46.000 C268.059,46.000 260.000,37.941 260.000,28.000 L260.000,18.000 C260.000,8.059 268.059,-0.000 278.000,-0.000 L364.000,-0.000 C373.941,-0.000 382.000,8.059 382.000,18.000 L382.000,28.000 C382.000,37.941 373.941,46.000 364.000,46.000 ZM217.000,46.000 L131.000,46.000 C121.059,46.000 113.000,37.941 113.000,28.000 L113.000,18.000 C113.000,8.059 121.059,-0.000 131.000,-0.000 L217.000,-0.000 C226.941,-0.000 235.000,8.059 235.000,18.000 L235.000,28.000 C235.000,37.941 226.941,46.000 217.000,46.000 ZM25.000,211.000 L18.000,211.000 C8.059,211.000 -0.000,202.941 -0.000,193.000 L-0.000,107.000 C-0.000,97.059 8.059,89.000 18.000,89.000 L25.000,89.000 C34.941,89.000 43.000,97.059 43.000,107.000 L43.000,193.000 C43.000,202.941 34.941,211.000 25.000,211.000 ZM131.000,261.000 L217.000,261.000 C226.941,261.000 235.000,269.059 235.000,279.000 L235.000,288.000 C235.000,297.941 226.941,306.000 217.000,306.000 L131.000,306.000 C121.059,306.000 113.000,297.941 113.000,288.000 L113.000,279.000 C113.000,269.059 121.059,261.000 131.000,261.000 ZM278.000,261.000 L364.000,261.000 C373.941,261.000 382.000,269.059 382.000,279.000 L382.000,287.000 C382.000,296.941 373.941,305.000 364.000,305.000 L278.000,305.000 C268.059,305.000 260.000,296.941 260.000,287.000 L260.000,279.000 C260.000,269.059 268.059,261.000 278.000,261.000 Z" class="cls-1"/>
</svg>
